
        <svg xmlns="http://www.w3.org/2000/svg" xmlns:xlink="http://www.w3.org/1999/xlink" version="1.1" width="3162.1621621621625" height="934.194348320216" viewBox="0 0 3162.1621621621625 934.194348320216">
			
			<g transform="scale(8.108108108108109) translate(10, 10)">
				<defs id="SvgjsDefs1159"><linearGradient id="SvgjsLinearGradient1164"><stop id="SvgjsStop1165" stop-color="#00ddff" offset="0"/><stop id="SvgjsStop1166" stop-color="#ff00d4" offset="1"/></linearGradient></defs><g id="SvgjsG1160" featureKey="symbolFeature-0" transform="matrix(1.242207769560754,0,0,1.242207769560754,-5.899346076248994,-6.861260531168164)" fill="#000"><polygon xmlns="http://www.w3.org/2000/svg" class="st2" points="85.2509155,34.7896652 45.0104332,5.5234404 4.7490816,34.7896652 20.1314583,82.1751099   69.8894043,82.1751099 85.2509155,34.7896652 " style="fill: none; stroke: url(#SvgjsLinearGradient1164); stroke-width: 0.25; stroke-linecap: square; stroke-miterlimit: 10;"/><polygon xmlns="http://www.w3.org/2000/svg" class="st2" points="65.6524887,82.0707321 18.9000454,78.1045532 8.2346325,32.3682289 48.3707542,8.0701427   83.8734131,38.7976074 65.6524887,82.0707321 " style="fill: none; stroke: url(#SvgjsLinearGradient1164); stroke-width: 0.25; stroke-linecap: square; stroke-miterlimit: 10;"/><polygon xmlns="http://www.w3.org/2000/svg" class="st2" points="18.0234146,73.9505005 11.9080429,30.2598763 51.5223885,10.9299698 82.1410522,42.6802864   61.4364014,81.6323624 18.0234146,73.9505005 " style="fill: none; stroke: url(#SvgjsLinearGradient1164); stroke-width: 0.25; stroke-linecap: square; stroke-miterlimit: 10;"/><polygon xmlns="http://www.w3.org/2000/svg" class="st2" points="57.2829437,80.7973785 17.5433693,69.7546997 15.7484121,28.4855328 54.3818016,14.040288   80.0539093,46.375103 57.2829437,80.7973785 " style="fill: none; stroke: url(#SvgjsLinearGradient1164); stroke-width: 0.25; stroke-linecap: square; stroke-miterlimit: 10;"/><polygon xmlns="http://www.w3.org/2000/svg" class="st2" points="53.2338486,79.544899 17.4599075,65.4962769 19.7557755,27.1078091 56.9489899,17.4219818   77.6327744,49.8402939 53.2338486,79.544899 " style="fill: none; stroke: url(#SvgjsLinearGradient1164); stroke-width: 0.25; stroke-linecap: square; stroke-miterlimit: 10;"/><polygon xmlns="http://www.w3.org/2000/svg" class="st2" points="49.3308487,77.8958054 17.8355904,61.2795906 23.8883667,26.1475735 59.1196671,21.0750332   74.8568649,53.0549812 49.3308487,77.8958054 " style="fill: none; stroke: url(#SvgjsLinearGradient1164); stroke-width: 0.25; stroke-linecap: square; stroke-miterlimit: 10;"/><polygon xmlns="http://www.w3.org/2000/svg" class="st2" points="45.6365738,75.808342 18.6704559,57.1255379 28.0835552,25.6674538 60.8937569,24.9159794   71.7261276,55.9148102 45.6365738,75.808342 " style="fill: none; stroke: url(#SvgjsLinearGradient1164); stroke-width: 0.25; stroke-linecap: square; stroke-miterlimit: 10;"/><polygon xmlns="http://www.w3.org/2000/svg" class="st2" points="42.23452,73.2825089 20.0270958,53.0967331 32.320507,25.7092209 62.1460381,28.9656506   68.2823105,58.3780136 42.23452,73.2825089 " style="fill: none; stroke: url(#SvgjsLinearGradient1164); stroke-width: 0.25; stroke-linecap: square; stroke-miterlimit: 10;"/><polygon xmlns="http://www.w3.org/2000/svg" class="st2" points="39.2081108,70.3391876 21.8846855,49.2975426 36.5156937,26.3145676 62.8765373,33.1405869   64.5253983,60.3402367 39.2081108,70.3391876 " style="fill: none; stroke: url(#SvgjsLinearGradient1164); stroke-width: 0.25; stroke-linecap: square; stroke-miterlimit: 10;"/><polygon xmlns="http://www.w3.org/2000/svg" class="st2" points="36.6409225,66.9574966 24.3057804,45.8114853 40.5856552,27.5461788 62.9600334,37.3781357   60.5389404,61.7388344 36.6409225,66.9574966 " style="fill: none; stroke: url(#SvgjsLinearGradient1164); stroke-width: 0.25; stroke-linecap: square; stroke-miterlimit: 10;"/><polygon xmlns="http://www.w3.org/2000/svg" class="st2" points="34.6581078,63.2000656 27.2486897,42.7846642 44.3842926,29.4249039 62.354763,41.5739365   56.3646164,62.4694443 34.6581078,63.2000656 " style="fill: none; stroke: url(#SvgjsLinearGradient1164); stroke-width: 0.25; stroke-linecap: square; stroke-miterlimit: 10;"/></g><g id="SvgjsG1161" featureKey="vMvB0T-0" transform="matrix(2.7262814429656563,0,0,2.7262814429656563,117.70992057192672,11.914937926511872)" fill="#000"><path d="M11.81 6.85 q1.67 0.95 2.65 2.57 t0.98 3.56 t-0.98 3.58 t-2.65 2.6 t-3.67 0.96 t-3.67 -0.96 t-2.65 -2.6 t-0.98 -3.58 t0.98 -3.56 t2.65 -2.57 t3.67 -0.95 t3.67 0.95 z M5.2 7.92 q-1.36 0.78 -2.16 2.12 t-0.8 2.94 t0.8 2.96 t2.16 2.15 t2.96 0.79 q1.58 0 2.93 -0.79 t2.15 -2.15 t0.8 -2.96 t-0.8 -2.94 t-2.15 -2.12 t-2.93 -0.78 q-1.6 0 -2.96 0.78 z M18.48 6 l1.72 0 l5.48 10.5 l5.42 -10.5 l1.72 0 l0 14 l-1.28 0 l-0.02 -12.08 l-5.48 10.58 l-0.76 0 l-5.5 -10.58 l0 12.08 l-1.3 0 l0 -14 z M47.36 6.02 l1.36 0 l0 13.98 l-1.46 0 l-8.66 -11.84 l0 11.84 l-1.38 0 l0 -13.98 l1.46 0 l8.68 11.84 l0 -11.84 z M53.14000000000001 6.02 l9.36 0 l0 1.24 l-7.98 0 l0 5 l7.14 0 l0 1.24 l-7.14 0 l0 5.26 l8.24 0 l0 1.24 l-9.62 0 l0 -13.98 z M75.36 20 l-3.02 -4.56 q-0.64 0.04 -0.98 0.04 l-3.84 0 l0 4.52 l-1.38 0 l0 -13.98 l5.22 0 q2.62 0 4.05 1.21 t1.43 3.43 q0 1.74 -0.84 2.9 t-2.4 1.62 l3.36 4.82 l-1.6 0 z M71.36 14.24 q2 0 3.08 -0.91 t1.08 -2.63 q0 -1.68 -1.08 -2.56 t-3.08 -0.88 l-3.84 0 l0 6.98 l3.84 0 z M91.04 20 l-1.66 -3.72 l-7.76 0 l-1.64 3.72 l-1.48 0 l6.3 -13.98 l1.44 0 l6.3 13.98 l-1.5 0 z M82.16000000000001 15.04 l6.68 0 l-3.36 -7.56 z"/></g>
			</g>
		</svg>
	