<?xml version="1.0" encoding="UTF-8"?>
<svg xmlns="http://www.w3.org/2000/svg" viewBox="669 494 582 92">
  <g>
    <path d="M1237.91,507.87v9.34c-2.16-3.32-5.02-5.9-8.59-7.72-3.49-1.91-7.93-2.86-13.33-2.86-4.57,0-8.8.87-12.7,2.62-3.9,1.66-7.27,4.03-10.09,7.1-2.82,2.99-5.02,6.52-6.6,10.59-1.58,4.07-2.37,8.47-2.37,13.2s.79,9.01,2.37,13.08c1.58,3.99,3.78,7.47,6.6,10.46,2.82,2.99,6.19,5.36,10.09,7.1,3.9,1.74,8.14,2.62,12.7,2.62,5.4,0,9.84-.91,13.33-2.74,3.57-1.91,6.43-4.48,8.59-7.72v9.34h12.83v-64.39h-12.83ZM1237.91,543.86c-.33,2.32-1.04,4.53-2.12,6.6-1.08,1.99-2.49,3.78-4.23,5.36-1.74,1.49-3.78,2.7-6.1,3.61-2.32.83-4.86,1.25-7.6,1.25-3.07,0-5.85-.54-8.34-1.62-2.49-1.16-4.61-2.7-6.35-4.61-1.74-1.91-3.11-4.07-4.11-6.48-.91-2.49-1.37-5.11-1.37-7.85s.46-5.36,1.37-7.85c.91-2.57,2.24-4.82,3.99-6.73,1.74-1.99,3.86-3.53,6.35-4.61,2.49-1.16,5.31-1.74,8.47-1.74,2.74,0,5.27.46,7.6,1.37,2.32.91,4.36,2.16,6.1,3.74,1.74,1.49,3.16,3.32,4.23,5.48,1.08,2.08,1.79,4.32,2.12,6.73v7.35Z"/>
    <path d="M1153.29,521.19v-13.33h-12.83v64.39h12.83v-30.02c.08-3.65.87-6.85,2.37-9.59,1.49-2.74,3.4-5.02,5.73-6.85,2.32-1.83,4.94-3.2,7.85-4.11,2.91-.91,5.77-1.37,8.59-1.37v-13.7c-5.06,0-9.76,1.2-14.07,3.61-4.32,2.41-7.8,6.06-10.46,10.96Z"/>
    <path d="M1125.08,523.06c-1.83-3.4-4.19-6.31-7.1-8.72-2.91-2.49-6.31-4.4-10.21-5.73-3.82-1.33-7.97-1.99-12.45-1.99-4.73,0-9.13.87-13.2,2.62-3.99,1.66-7.47,3.99-10.46,6.97-2.91,2.99-5.19,6.52-6.85,10.59-1.66,4.07-2.49,8.47-2.49,13.2s.87,9.01,2.62,13.08c1.74,4.07,4.11,7.6,7.1,10.59,2.99,2.99,6.52,5.36,10.59,7.1,4.07,1.74,8.47,2.62,13.2,2.62,7.89,0,14.53-1.87,19.93-5.6,5.4-3.74,9.05-8.68,10.96-14.82h-14.82c-1.41,2.41-3.49,4.44-6.23,6.1-2.74,1.58-5.98,2.37-9.71,2.37-2.82,0-5.4-.46-7.72-1.37-2.32-.91-4.36-2.16-6.1-3.74-1.74-1.66-3.16-3.57-4.23-5.73-1.08-2.24-1.79-4.65-2.12-7.22h52.68c.08-1.58.12-2.99.12-4.23.08-1.33.04-2.86-.12-4.61-.42-4.23-1.54-8.05-3.36-11.46ZM1076.13,534.27c1-4.57,3.16-8.3,6.48-11.21,3.32-2.99,7.56-4.48,12.7-4.48s9.55,1.45,12.95,4.36c3.49,2.82,5.48,6.6,5.98,11.33h-38.11Z"/>
    <path d="M1044.09,513.35c-1.91-2.16-4.28-3.82-7.1-4.98-2.74-1.16-5.9-1.74-9.47-1.74-4.98,0-9.47,1.12-13.45,3.36-3.99,2.24-7.18,5.31-9.59,9.22v-11.33h-12.83v64.39h12.83v-32.76c.08-2.49.58-4.94,1.49-7.35,1-2.49,2.28-4.69,3.86-6.6,1.66-1.91,3.61-3.45,5.85-4.61,2.24-1.25,4.65-1.87,7.22-1.87,4.23,0,7.68,1.29,10.34,3.86,2.74,2.49,4.11,6.1,4.11,10.84v38.48h12.83v-41.97c0-3.4-.54-6.56-1.62-9.47-1-2.91-2.49-5.4-4.48-7.47Z"/>
    <path d="M969.47,513.35c-1.74-2.16-3.9-3.82-6.48-4.98-2.57-1.16-5.48-1.74-8.72-1.74-4.98,0-9.34,1.25-13.08,3.74s-6.77,5.9-9.09,10.21c-1.41-4.23-3.74-7.6-6.97-10.09-3.24-2.57-7.31-3.86-12.21-3.86-4.48,0-8.47,1.04-11.96,3.11-3.4,2.08-6.27,4.94-8.59,8.59v-10.46h-12.83v64.39h12.83v-32.76c.08-2.49.54-4.94,1.37-7.35.83-2.49,1.95-4.69,3.36-6.6,1.41-1.91,3.07-3.45,4.98-4.61,1.91-1.25,3.99-1.87,6.23-1.87,3.65,0,6.64,1.29,8.97,3.86,2.41,2.49,3.61,6.1,3.61,10.84v38.48h12.83v-32.76c.08-2.49.5-4.94,1.25-7.35.83-2.49,1.95-4.69,3.36-6.6,1.41-1.91,3.07-3.45,4.98-4.61,1.99-1.25,4.11-1.87,6.35-1.87,3.65,0,6.64,1.29,8.97,3.86,2.41,2.49,3.61,6.1,3.61,10.84v38.48h12.83v-41.97c0-3.4-.5-6.56-1.49-9.47-.91-2.91-2.28-5.4-4.11-7.47Z"/>
    <path d="M857.58,516.21c-2.99-2.99-6.52-5.31-10.59-6.97-4.07-1.74-8.47-2.62-13.2-2.62s-9.13.87-13.2,2.62c-4.07,1.66-7.6,3.99-10.59,6.97-2.99,2.99-5.36,6.52-7.1,10.59-1.74,4.07-2.62,8.47-2.62,13.2s.87,9.01,2.62,13.08c1.74,4.07,4.11,7.6,7.1,10.59,2.99,2.99,6.52,5.36,10.59,7.1,4.07,1.74,8.47,2.62,13.2,2.62s9.13-.87,13.2-2.62c4.07-1.74,7.6-4.11,10.59-7.1,3.07-2.99,5.48-6.52,7.22-10.59,1.74-4.07,2.62-8.43,2.62-13.08s-.87-9.13-2.62-13.2c-1.74-4.07-4.15-7.6-7.22-10.59ZM852.35,547.85c-.91,2.49-2.24,4.69-3.99,6.6-1.74,1.91-3.86,3.45-6.35,4.61-2.41,1.08-5.11,1.62-8.1,1.62s-5.85-.54-8.34-1.62c-2.41-1.16-4.48-2.7-6.23-4.61-1.74-1.91-3.11-4.11-4.11-6.6-.91-2.49-1.37-5.06-1.37-7.72s.46-5.36,1.37-7.85c1-2.57,2.37-4.82,4.11-6.73,1.74-1.91,3.82-3.45,6.23-4.61,2.49-1.16,5.27-1.74,8.34-1.74s5.81.58,8.22,1.74c2.49,1.16,4.61,2.7,6.35,4.61,1.74,1.91,3.07,4.15,3.99,6.73.91,2.49,1.37,5.11,1.37,7.85s-.5,5.23-1.49,7.72Z"/>
  </g>
  <path d="M755.44,562.45v20.64h-20.64l-22.11-22.11h20.64v-20.63l22.11,22.11ZM689.9,496.91l22.11,22.11h-20.64v20.64l-22.11-22.11v-20.64h20.64Z"/>
  <path d="M691.37,560.98h20.98v22.11h-43.09v-43.09h22.11v20.98ZM755.44,496.91v43.09h-22.11v-20.98h-20.98v-22.11h43.09Z"/>
</svg>
