<?xml version="1.0" encoding="UTF-8"?>
<svg xmlns="http://www.w3.org/2000/svg" viewBox="0 0 2417.51 358.29">
  <g>
    <g>
      <path d="M2364.17,45.55v38.84c-8.98-13.81-20.89-24.51-35.73-32.1-14.5-7.94-32.97-11.91-55.41-11.91-18.99,0-36.59,3.62-52.82,10.87-16.22,6.9-30.21,16.74-41.94,29.51-11.74,12.43-20.89,27.1-27.44,44.01-6.56,16.91-9.84,35.21-9.84,54.89s3.28,37.45,9.84,54.37c6.56,16.57,15.71,31.07,27.44,43.5,11.74,12.43,25.72,22.27,41.94,29.52,16.22,7.25,33.83,10.87,52.82,10.87,22.44,0,40.91-3.8,55.41-11.39,14.84-7.94,26.75-18.64,35.73-32.1v38.84h53.33V45.55h-53.33ZM2364.17,195.2c-1.38,9.67-4.31,18.81-8.8,27.44-4.49,8.29-10.36,15.71-17.61,22.27-7.25,6.21-15.71,11.22-25.37,15.02-9.67,3.45-20.19,5.18-31.59,5.18-12.77,0-24.34-2.24-34.69-6.73-10.36-4.83-19.16-11.22-26.41-19.16-7.25-7.94-12.95-16.91-17.09-26.93-3.8-10.36-5.7-21.23-5.7-32.62s1.9-22.27,5.7-32.62c3.8-10.7,9.32-20.02,16.57-27.96,7.25-8.28,16.05-14.67,26.41-19.16,10.36-4.83,22.09-7.25,35.21-7.25,11.39,0,21.92,1.9,31.59,5.7,9.67,3.8,18.12,8.98,25.37,15.53,7.25,6.21,13.12,13.81,17.61,22.78,4.49,8.63,7.42,17.95,8.8,27.96v30.55Z"/>
      <path d="M2012.35,100.96v-55.41h-53.33v267.71h53.33v-124.79c.35-15.19,3.62-28.48,9.84-39.87,6.21-11.39,14.15-20.88,23.82-28.48,9.67-7.59,20.54-13.29,32.62-17.09,12.08-3.8,23.99-5.7,35.73-5.7v-56.96c-21.06,0-40.56,5.01-58.51,15.02-17.95,10.01-32.45,25.2-43.5,45.57Z"/>
      <path d="M1895.06,108.72c-7.59-14.15-17.43-26.24-29.51-36.25-12.08-10.36-26.24-18.3-42.46-23.82-15.88-5.52-33.14-8.28-51.78-8.28-19.68,0-37.97,3.62-54.89,10.87-16.57,6.9-31.07,16.57-43.5,29-12.08,12.43-21.57,27.1-28.48,44.01-6.9,16.92-10.36,35.21-10.36,54.89s3.62,37.45,10.87,54.37c7.25,16.92,17.09,31.59,29.51,44.01,12.43,12.43,27.1,22.27,44.01,29.52,16.92,7.25,35.21,10.87,54.89,10.87,32.79,0,60.41-7.77,82.85-23.3,22.44-15.53,37.63-36.07,45.57-61.62h-61.62c-5.87,10.01-14.5,18.47-25.89,25.37-11.39,6.56-24.85,9.84-40.39,9.84-11.74,0-22.44-1.9-32.1-5.7-9.67-3.8-18.12-8.98-25.37-15.53-7.25-6.9-13.12-14.84-17.6-23.82-4.49-9.32-7.42-19.33-8.8-30.03h219.03c.34-6.56.52-12.43.52-17.61.35-5.52.17-11.91-.52-19.16-1.73-17.61-6.39-33.48-13.98-47.64ZM1691.56,155.33c4.14-18.99,13.12-34.52,26.93-46.6,13.81-12.43,31.41-18.64,52.82-18.64s39.7,6.04,53.85,18.12c14.5,11.74,22.78,27.44,24.85,47.12h-158.45Z"/>
      <path d="M1558.35,68.33c-7.94-8.98-17.78-15.88-29.51-20.71-11.39-4.83-24.51-7.25-39.35-7.25-20.71,0-39.35,4.66-55.92,13.98-16.57,9.32-29.86,22.09-39.87,38.32v-47.12h-53.33v267.71h53.33v-136.18c.35-10.36,2.42-20.54,6.21-30.55,4.14-10.36,9.49-19.5,16.05-27.44,6.9-7.94,15.02-14.33,24.34-19.16,9.32-5.18,19.33-7.77,30.03-7.77,17.61,0,31.93,5.35,42.98,16.05,11.39,10.36,17.09,25.37,17.09,45.05v160h53.33v-174.5c0-14.15-2.24-27.27-6.73-39.35-4.14-12.08-10.36-22.44-18.64-31.07Z"/>
      <path d="M1248.12,68.33c-7.25-8.98-16.22-15.88-26.93-20.71-10.7-4.83-22.78-7.25-36.25-7.25-20.71,0-38.84,5.18-54.37,15.53-15.53,10.36-28.13,24.51-37.8,42.46-5.87-17.61-15.53-31.59-29-41.94-13.46-10.7-30.38-16.05-50.75-16.05-18.64,0-35.21,4.32-49.71,12.95-14.15,8.63-26.06,20.54-35.73,35.73v-43.5h-53.33v267.71h53.33v-136.18c.35-10.36,2.24-20.54,5.7-30.55,3.45-10.36,8.11-19.5,13.98-27.44,5.87-7.94,12.77-14.33,20.71-19.16,7.94-5.18,16.57-7.77,25.89-7.77,15.19,0,27.62,5.35,37.28,16.05,10.01,10.36,15.02,25.37,15.02,45.05v160h53.33v-136.18c.35-10.36,2.07-20.54,5.18-30.55,3.45-10.36,8.11-19.5,13.98-27.44,5.87-7.94,12.77-14.33,20.71-19.16,8.28-5.18,17.09-7.77,26.41-7.77,15.19,0,27.62,5.35,37.28,16.05,10.01,10.36,15.02,25.37,15.02,45.05v160h53.33v-174.5c0-14.15-2.07-27.27-6.21-39.35-3.8-12.08-9.49-22.44-17.09-31.07Z"/>
      <path d="M782.95,80.24c-12.43-12.43-27.1-22.09-44.01-29-16.91-7.25-35.21-10.87-54.89-10.87s-37.97,3.62-54.89,10.87c-16.92,6.9-31.59,16.57-44.01,29-12.43,12.43-22.27,27.1-29.51,44.01-7.25,16.92-10.87,35.21-10.87,54.89s3.62,37.45,10.87,54.37c7.25,16.92,17.09,31.59,29.51,44.01,12.43,12.43,27.1,22.27,44.01,29.52,16.91,7.25,35.21,10.87,54.89,10.87s37.97-3.62,54.89-10.87c16.92-7.25,31.59-17.09,44.01-29.52,12.77-12.43,22.78-27.1,30.03-44.01,7.25-16.91,10.87-35.04,10.87-54.37s-3.62-37.97-10.87-54.89c-7.25-16.91-17.26-31.59-30.03-44.01ZM761.21,211.77c-3.8,10.36-9.32,19.5-16.57,27.44-7.25,7.94-16.05,14.33-26.41,19.16-10.01,4.49-21.23,6.73-33.66,6.73s-24.34-2.24-34.69-6.73c-10.01-4.83-18.64-11.22-25.89-19.16-7.25-7.94-12.95-17.09-17.09-27.44-3.8-10.36-5.7-21.06-5.7-32.1s1.9-22.27,5.7-32.62c4.14-10.7,9.84-20.02,17.09-27.96,7.25-7.94,15.88-14.33,25.89-19.16,10.36-4.83,21.92-7.25,34.69-7.25s24.16,2.42,34.18,7.25c10.36,4.83,19.16,11.22,26.41,19.16,7.25,7.94,12.77,17.26,16.57,27.96,3.8,10.36,5.7,21.23,5.7,32.62s-2.07,21.75-6.21,32.1Z"/>
    </g>
    <path d="M358.28,272.5v85.79h-85.79l-91.93-91.93h85.82v-85.78l91.91,91.92ZM85.79,0l91.93,91.92h-85.79v85.82L0,85.82V0h85.79Z"/>
    <path d="M91.93,266.36h87.22v91.93H0v-179.14h91.93v87.21ZM358.28,0v179.15h-91.91v-87.23h-87.22V0h179.13Z"/>
  </g>
</svg>
